<?xml version="1.0" standalone="no"?>
<!DOCTYPE svg PUBLIC "-//W3C//DTD SVG 20010904//EN"
 "http://www.w3.org/TR/2001/REC-SVG-20010904/DTD/svg10.dtd">
<svg version="1.0" xmlns="http://www.w3.org/2000/svg"
 width="200.000000pt" height="200.000000pt" viewBox="0 0 200.000000 200.000000"
 preserveAspectRatio="xMidYMid meet">
<metadata>
Created by potrace 1.10, written by Peter Selinger 2001-2011
</metadata>
<g transform="translate(0.000000,200.000000) scale(0.100000,-0.100000)"
fill="#000000" stroke="none">
<path d="M900 1930 c-417 -52 -743 -357 -821 -767 -7 -39 -10 -116 -7 -205 5
-120 10 -157 33 -228 100 -308 317 -525 625 -625 71 -23 108 -28 228 -33 150
-5 218 3 332 40 193 62 371 197 489 371 139 204 188 496 126 743 -85 340 -355
604 -698 684 -101 23 -221 31 -307 20z m325 -85 c94 -26 254 -108 327 -169
132 -110 242 -276 288 -436 31 -107 38 -298 16 -411 -31 -154 -108 -305 -215
-421 -299 -324 -791 -372 -1157 -112 -75 53 -177 162 -222 237 -90 149 -132
299 -132 467 0 242 83 443 255 615 124 123 268 203 430 239 91 20 323 15 410
-9z"/>
<path d="M907 1824 c-3 -3 -3 -21 0 -40 4 -27 2 -34 -11 -34 -9 0 -17 9 -17
20 -3 39 -4 43 -16 48 -16 5 -17 -41 -3 -69 12 -21 52 -26 67 -6 6 6 8 29 6
50 -5 35 -12 44 -26 31z"/>
<path d="M950 1815 c0 -8 5 -15 10 -15 6 0 10 -16 10 -35 0 -19 5 -35 10 -35
6 0 10 18 10 40 0 22 5 40 10 40 6 0 10 5 10 10 0 6 -13 10 -30 10 -20 0 -30
-5 -30 -15z"/>
<path d="M1036 1814 c-31 -30 -9 -84 34 -84 24 0 50 26 50 50 0 24 -26 50 -50
50 -10 0 -26 -7 -34 -16z m60 -25 c3 -6 -1 -18 -10 -27 -15 -15 -17 -15 -32 0
-19 19 -11 38 16 38 10 0 22 -5 26 -11z"/>
<path d="M1130 1809 c0 -4 4 -10 9 -14 6 -3 6 -18 0 -38 -11 -40 -12 -37 6
-37 8 0 17 14 21 35 3 19 10 35 15 35 23 0 6 18 -21 22 -16 3 -30 1 -30 -3z"/>
<path d="M770 1781 c0 -10 -3 -33 -6 -50 -5 -24 -3 -31 9 -31 8 0 17 7 21 15
4 11 13 14 32 9 21 -6 25 -4 19 7 -39 65 -75 89 -75 50z"/>
<path d="M1211 1777 c-22 -58 -23 -67 -7 -67 9 0 16 6 17 13 0 6 4 2 9 -10 5
-13 14 -23 21 -23 6 0 8 7 5 16 -3 8 1 25 9 38 12 19 13 25 3 33 -30 23 -49
23 -57 0z"/>
<path d="M1291 1746 c-22 -26 -9 -70 23 -81 24 -8 31 -6 47 14 23 28 24 45 3
65 -19 20 -58 21 -73 2z m57 -34 c3 -16 -2 -22 -17 -22 -26 0 -36 17 -20 36
16 19 33 13 37 -14z"/>
<path d="M606 1727 c-17 -12 -17 -15 4 -50 23 -39 46 -50 35 -18 -3 11 -1 22
5 26 16 10 2 25 -18 18 -14 -5 -15 -3 -4 8 25 27 10 39 -22 16z"/>
<path d="M1382 1683 c-15 -23 -20 -39 -13 -46 6 -6 14 -1 22 14 13 24 13 24
19 -10 7 -47 24 -49 50 -6 26 42 18 62 -10 25 l-19 -25 -3 39 c-4 51 -18 54
-46 9z"/>
<path d="M825 1680 c-95 -25 -138 -44 -217 -97 -141 -93 -256 -261 -293 -429
-25 -110 -16 -282 19 -382 69 -200 225 -357 428 -435 80 -30 88 -31 238 -31
150 0 158 1 238 31 209 80 370 248 434 453 19 64 23 96 23 215 0 126 -3 148
-27 216 -40 113 -92 195 -178 279 -90 88 -199 150 -316 180 -101 26 -252 26
-349 0z m229 -27 c3 -16 8 -45 12 -65 13 -76 61 -75 112 2 34 53 41 56 91 39
34 -12 37 -27 22 -108 -11 -54 -6 -69 25 -77 17 -4 37 4 73 30 27 20 53 36 58
36 12 0 63 -53 63 -65 0 -6 -16 -33 -36 -62 -57 -83 -32 -114 72 -93 66 14 81
5 90 -51 5 -32 3 -36 -48 -69 -85 -56 -76 -93 29 -114 l58 -11 0 -49 0 -50
-63 -11 c-34 -7 -67 -16 -73 -22 -22 -22 -4 -57 49 -92 49 -33 53 -39 47 -66
-10 -51 -25 -59 -89 -45 -104 21 -129 -10 -72 -93 20 -29 36 -57 36 -63 0 -11
-52 -64 -63 -64 -4 0 -30 16 -57 36 -37 26 -57 35 -74 30 -33 -8 -37 -24 -22
-95 14 -68 12 -75 -27 -90 -46 -18 -55 -14 -93 44 -53 79 -95 75 -109 -10 -14
-89 -11 -85 -65 -85 -28 0 -50 1 -50 3 -1 29 -22 123 -31 133 -24 30 -55 16
-93 -41 -38 -58 -47 -62 -93 -44 -39 15 -41 22 -27 90 15 71 11 87 -22 95 -17
5 -37 -4 -74 -30 -27 -20 -53 -36 -57 -36 -11 0 -63 53 -63 64 0 6 16 34 36
63 57 83 32 114 -72 93 -66 -14 -81 -5 -90 51 -5 32 -3 36 48 69 85 56 76 93
-29 114 l-58 11 0 49 0 50 60 11 c74 13 85 20 85 51 0 22 -30 51 -96 90 -17
10 -17 14 -5 52 15 46 20 47 91 31 96 -22 121 14 66 94 -20 29 -36 57 -36 63
0 12 52 64 64 64 5 0 30 -16 57 -36 36 -26 56 -34 73 -30 33 8 37 24 22 95
-14 68 -12 75 27 90 46 18 55 14 93 -44 53 -79 95 -75 109 10 14 89 11 85 64
85 46 0 50 -2 55 -27z m-149 -26 c-7 -58 -28 -72 -47 -32 -6 14 -16 25 -21 25
-6 0 0 9 12 19 28 24 60 17 56 -12z m243 -18 c-13 -38 -26 -45 -43 -23 -21 28
-18 54 8 63 33 13 48 -4 35 -40z m-473 -69 c3 -11 4 -24 1 -29 -4 -5 0 -12 6
-14 8 -3 6 -6 -5 -6 -12 -1 -16 -5 -11 -13 6 -10 5 -10 -8 -1 -8 7 -19 9 -23
5 -5 -4 -5 -2 -2 4 4 7 0 14 -8 18 -20 7 -19 33 3 45 26 16 40 13 47 -9z m703
8 c18 -18 14 -31 -13 -51 -25 -18 -25 -18 -34 5 -17 46 15 78 47 46z m-889
-171 c6 -8 8 -17 4 -20 -3 -4 0 -7 8 -7 8 0 15 -8 16 -18 1 -14 -5 -17 -38
-14 -41 4 -48 17 -29 53 13 22 23 24 39 6z m1066 -17 c20 -40 20 -40 -25 -40
-28 0 -40 4 -40 14 0 8 5 18 11 21 6 4 8 12 6 19 -10 27 34 14 48 -14z m-1155
-210 c23 0 31 -22 14 -38 -8 -7 -14 -9 -14 -5 0 4 -4 2 -8 -5 -10 -15 -38 -7
-45 13 -3 7 2 23 11 36 9 13 17 18 20 11 2 -7 12 -12 22 -12z m1258 -30 c2
-28 -6 -35 -31 -31 -4 1 -18 2 -31 3 -31 3 -27 24 9 48 35 23 50 18 53 -20z
m-1247 -214 c9 0 16 -6 16 -13 0 -7 -4 -10 -8 -8 -6 4 -23 -23 -21 -35 0 -3
-10 -6 -23 -6 -17 -1 -24 5 -27 21 -7 32 10 58 30 49 10 -4 24 -7 33 -8z
m1240 -18 c4 -5 4 -19 1 -30 -4 -16 -10 -19 -36 -14 -29 6 -60 32 -52 45 7 11
80 10 87 -1z m-128 -210 c-3 -6 5 -8 18 -6 19 2 23 -1 21 -17 -2 -11 -10 -26
-17 -34 -12 -13 -18 -11 -38 11 -24 26 -19 55 9 55 7 0 11 -4 7 -9z m-1018 -8
c-3 -5 -1 -10 5 -10 6 0 -1 -13 -17 -29 -25 -25 -29 -26 -40 -12 -16 21 -16
48 0 54 22 10 58 7 52 -3z m825 -168 c0 13 58 -14 65 -30 3 -9 3 -13 -1 -10
-3 4 -15 -2 -27 -13 -28 -25 -34 -24 -39 9 -3 15 -8 36 -13 47 -5 16 -5 17 4
5 6 -8 11 -12 11 -8z m-650 -16 c10 -13 10 -17 3 -12 -9 5 -13 1 -13 -12 0
-11 -9 -22 -20 -25 -11 -3 -18 -1 -14 4 3 5 1 9 -3 9 -5 0 -18 7 -29 16 -10 8
-14 13 -7 10 6 -4 15 -1 18 5 6 8 49 31 50 25 1 0 7 -10 15 -20z m455 -64 c6
-4 12 -14 14 -22 9 -38 5 -45 -26 -48 -35 -3 -38 2 -24 42 7 17 7 26 -2 30 -7
2 -3 5 8 5 11 0 25 -3 30 -7z m-232 -24 c7 -20 -8 -53 -24 -53 -21 0 -37 18
-31 35 11 29 46 40 55 18z"/>
<path d="M974 1662 c-6 -4 -15 -30 -18 -57 -8 -59 -13 -68 -43 -84 -37 -19
-51 -13 -94 47 -23 31 -43 58 -45 60 -1 2 -16 -4 -34 -13 -23 -12 -30 -21 -25
-33 4 -9 9 -42 12 -73 5 -51 3 -58 -18 -73 -33 -23 -42 -21 -104 20 -54 36
-56 36 -75 19 -27 -24 -26 -30 15 -90 31 -44 34 -55 26 -78 -16 -41 -42 -50
-112 -36 -51 10 -62 10 -70 -2 -16 -25 -9 -48 19 -66 45 -28 82 -66 82 -84 0
-34 -34 -61 -90 -70 -56 -9 -72 -21 -68 -53 4 -24 22 -34 81 -41 35 -5 51 -13
63 -31 24 -36 11 -65 -50 -107 -53 -36 -54 -38 -44 -67 11 -33 16 -35 88 -19
43 9 55 8 75 -5 35 -23 33 -67 -7 -122 -25 -35 -30 -49 -22 -61 23 -37 39 -37
91 1 57 41 69 43 102 20 21 -15 23 -22 18 -73 -3 -31 -8 -63 -12 -72 -5 -12 3
-21 26 -33 18 -9 33 -16 34 -16 2 0 17 23 35 50 47 73 79 86 117 50 14 -13 24
-38 28 -74 6 -42 12 -57 26 -61 40 -13 56 3 64 60 5 42 12 59 32 75 41 32 59
25 105 -38 l43 -59 33 14 c26 10 32 18 27 31 -4 9 -9 42 -12 73 -5 51 -3 58
18 73 33 23 42 21 104 -20 54 -36 56 -36 75 -19 27 24 25 34 -11 84 -17 23
-31 54 -31 68 0 38 38 66 77 59 100 -21 104 -20 111 9 6 23 2 32 -16 47 -13
10 -30 16 -37 14 -8 -3 -12 -2 -9 3 3 4 -6 19 -19 31 -49 46 -19 98 64 111 30
4 56 10 59 13 10 11 10 56 -1 64 -11 8 -72 21 -119 25 -9 1 -16 4 -16 7 1 3
-2 18 -7 33 -6 23 -3 33 21 58 27 28 27 29 5 29 -14 0 -20 -4 -15 -12 5 -8 2
-9 -10 -5 -13 5 -17 3 -13 -7 9 -22 -5 -28 -24 -10 -9 8 -15 23 -12 32 2 9 -5
27 -16 39 -12 12 -21 24 -21 25 0 2 26 4 58 6 31 1 66 3 77 5 12 1 21 -5 23
-15 2 -11 -3 -18 -13 -18 -9 0 -13 -4 -10 -10 3 -6 -4 -10 -17 -11 l-23 0 23
-10 c18 -7 30 -4 52 11 26 19 28 23 18 51 -11 33 -13 34 -113 13 -39 -7 -77
21 -77 58 0 15 15 47 33 73 26 36 31 50 23 62 -23 37 -39 37 -91 -1 -57 -41
-69 -43 -102 -20 -21 15 -23 22 -18 73 3 31 8 64 12 73 5 12 -2 21 -24 32 -16
9 -32 16 -34 16 -2 0 -20 -24 -40 -54 -39 -59 -64 -73 -97 -56 -11 6 -24 9
-29 6 -5 -3 -8 0 -8 7 1 6 -2 37 -7 67 -8 55 -18 70 -46 70 -8 0 -20 -4 -26
-8z m44 -47 c7 -14 12 -34 12 -45 0 -10 4 -21 10 -25 5 -3 7 -12 3 -20 -3 -10
1 -15 13 -16 11 0 14 -3 6 -6 -6 -2 -10 -9 -6 -14 3 -5 0 -9 -5 -9 -6 0 -11 4
-11 8 0 10 -71 9 -88 -1 -16 -10 -15 -4 2 38 8 18 16 46 18 62 3 27 17 52 29
53 3 0 11 -11 17 -25z m-217 -64 c16 -13 26 -28 23 -32 -5 -9 52 -26 69 -21 5
1 6 -2 2 -8 -3 -6 -10 -8 -15 -5 -4 3 -10 0 -12 -6 -2 -6 -16 -11 -31 -11 -15
0 -24 -4 -21 -9 3 -5 -2 -10 -10 -10 -35 -3 -41 -5 -39 -14 1 -6 -11 -11 -25
-11 -15 -1 -21 1 -14 3 6 3 12 12 12 21 0 14 2 15 10 2 6 -9 7 6 4 45 -3 32
-10 65 -16 72 -8 10 -6 13 6 13 9 0 17 8 17 18 1 14 2 13 6 -3 3 -11 18 -31
34 -44z m450 -9 c-5 -17 -7 -33 -4 -36 10 -10 -9 -66 -23 -66 -8 0 -14 5 -14
11 0 5 -3 8 -7 6 -5 -2 -24 1 -43 9 -19 7 -28 13 -20 13 13 1 13 2 0 11 -12 8
-10 10 8 10 13 0 20 4 17 10 -4 6 1 7 11 3 14 -5 16 -3 11 11 -4 10 -1 19 8
22 8 4 15 12 15 20 0 8 6 11 15 8 12 -5 13 -2 8 12 -6 18 -6 18 10 3 12 -13
14 -24 8 -47z m-86 -100 l60 -21 18 20 c9 12 17 17 17 11 0 -6 -7 -17 -15 -26
-13 -13 -11 -17 20 -36 19 -12 59 -48 88 -80 44 -49 56 -57 67 -47 12 10 12 9
2 -4 -9 -12 -6 -29 15 -80 49 -121 47 -262 -6 -376 -16 -34 -27 -64 -25 -67 2
-3 1 -4 -2 -1 -9 6 -69 -77 -65 -90 1 -5 -1 -7 -4 -3 -4 4 -27 -6 -52 -23 -24
-17 -69 -42 -101 -57 -52 -25 -67 -27 -182 -27 -118 1 -129 2 -190 31 -165 77
-280 252 -280 429 0 207 127 382 330 453 83 29 213 26 305 -6z m-545 -22 c15
-11 30 -17 33 -13 3 3 14 2 24 -1 17 -7 17 -8 -1 -21 -10 -8 -15 -18 -11 -24
3 -6 -5 -15 -19 -21 -14 -5 -26 -14 -26 -20 0 -6 -4 -9 -9 -6 -5 3 -12 -4 -16
-17 -4 -12 -8 -25 -10 -29 -1 -5 -3 -15 -4 -23 0 -8 -7 -14 -13 -12 -7 1 -12
-6 -12 -15 1 -10 -2 -18 -8 -18 -5 0 -7 -4 -4 -8 3 -5 -6 -19 -19 -30 -14 -12
-25 -18 -25 -13 0 11 -47 61 -58 61 -16 0 -31 25 -23 38 6 10 18 10 48 4 67
-15 98 -6 113 36 8 21 13 42 11 47 -2 6 -4 15 -5 21 -1 6 -9 22 -17 35 -9 13
-18 34 -21 46 -5 20 -3 21 19 12 14 -5 38 -18 53 -29z m847 25 c0 -8 -4 -12
-9 -9 -7 5 -12 -10 -9 -28 0 -5 -4 -8 -10 -8 -12 0 -42 -67 -35 -78 3 -5 0
-14 -6 -22 -8 -13 -9 -13 -5 0 6 21 -18 54 -35 48 -8 -3 -20 9 -30 28 l-18 34
28 0 c15 0 42 9 60 20 18 11 37 18 42 15 5 -3 11 -1 15 5 9 14 12 13 12 -5z
m-961 -402 c-10 -40 -8 -74 5 -89 9 -11 8 -14 -5 -14 -10 0 -15 4 -11 9 3 5 1
12 -5 16 -5 3 -10 -2 -10 -12 -1 -17 -1 -17 -10 -1 -6 10 -29 20 -56 24 -38 5
-45 10 -42 27 2 17 13 23 48 30 25 5 50 9 57 9 6 1 9 7 6 15 -3 8 2 13 12 13
14 0 16 -6 11 -27z m1000 10 c-4 -10 -4 -14 -1 -11 4 4 27 -2 51 -12 24 -11
51 -17 60 -13 12 4 15 0 12 -18 -2 -17 -12 -25 -38 -31 -19 -5 -42 -10 -50
-12 -8 -3 -20 -5 -27 -5 -6 -1 -13 -11 -15 -23 -2 -13 -4 14 -3 59 0 46 4 83
9 83 4 0 5 -8 2 -17z m-13 -183 c-5 -20 38 -71 72 -84 9 -3 13 -10 10 -16 -3
-5 -1 -10 6 -10 9 0 10 -3 3 -10 -7 -7 -25 -8 -53 -1 -23 5 -50 7 -60 4 -28
-7 -34 14 -9 31 21 15 21 16 3 16 -18 0 -18 1 2 15 13 9 20 22 17 30 -4 8 -4
22 0 30 8 22 15 18 9 -5z m-961 -25 c4 -5 8 -20 8 -33 0 -13 4 -20 10 -17 6 4
7 -1 3 -11 -4 -12 -3 -15 5 -10 8 5 10 1 5 -10 -4 -10 -2 -15 4 -11 5 3 10 0
10 -8 0 -11 -4 -12 -13 -4 -7 5 -42 11 -78 12 -62 3 -96 14 -68 24 6 3 12 11
12 19 0 7 6 11 13 9 6 -3 23 8 37 24 26 29 40 33 52 16z m64 -124 c-7 -11 33
-56 57 -64 10 -4 15 -12 12 -18 -4 -5 1 -20 12 -31 17 -20 17 -21 0 -15 -17 6
-75 -16 -87 -33 -3 -4 -18 -10 -35 -14 -16 -4 -25 -3 -20 1 22 17 57 103 55
134 -2 42 -2 49 6 49 3 0 3 -4 0 -9z m812 -57 c10 -20 10 -24 0 -18 -7 5 -1
-8 15 -28 15 -20 27 -43 27 -51 0 -9 6 -18 13 -21 6 -3 -1 -2 -18 1 -16 3 -41
14 -54 25 -13 10 -32 18 -41 18 -10 0 -23 7 -30 16 -11 13 -10 16 8 21 12 3
22 12 22 19 0 8 5 13 12 12 7 -2 13 3 14 10 3 20 4 22 12 22 5 0 14 -12 20
-26z m-152 -106 c4 -7 3 -8 -5 -4 -11 7 -11 -9 4 -104 2 -14 -3 -34 -11 -44
-14 -20 -14 -20 -14 0 0 10 -9 25 -20 32 -12 7 -18 18 -14 24 4 6 3 8 -3 5
-12 -8 -36 17 -26 26 3 4 -3 7 -15 7 -12 0 -22 5 -22 10 0 6 3 9 8 9 4 -1 14
-1 22 0 13 1 13 2 0 12 -12 8 -11 9 6 4 14 -3 28 1 38 10 9 9 16 13 16 9 0 -5
5 -3 12 4 15 15 15 15 24 0z m-466 -8 c0 -5 16 -12 35 -16 19 -3 35 -10 35
-14 0 -5 8 -11 18 -14 9 -3 5 -4 -10 -2 -15 2 -25 -1 -22 -5 3 -5 -6 -13 -20
-19 -14 -5 -26 -12 -26 -15 0 -4 6 -3 13 1 6 4 3 -2 -8 -13 -11 -11 -30 -22
-42 -25 -20 -5 -21 -3 -17 31 12 89 15 101 29 101 8 0 15 -4 15 -10z m219 -64
c1 13 35 12 37 -1 1 -6 -2 -20 -7 -33 -5 -12 -11 -34 -13 -49 -12 -64 -37 -49
-58 34 -15 59 -15 61 3 58 11 -2 19 2 20 8 0 7 4 3 9 -8 5 -11 9 -15 9 -9z"/>
<path d="M925 1440 c3 -5 39 -10 80 -10 41 0 77 5 80 10 4 6 -25 10 -80 10
-55 0 -84 -4 -80 -10z"/>
<path d="M804 1405 c-113 -58 -113 -56 -62 -104 24 -22 53 -41 66 -41 12 0 22
-4 22 -10 0 -5 -12 -10 -26 -10 -18 0 -40 15 -71 47 l-46 47 -23 -29 c-28 -36
-17 -56 30 -52 22 1 31 -2 31 -13 0 -20 -50 -16 -72 6 -16 15 -18 15 -40 -12
l-23 -29 120 -3 c161 -4 158 -22 -4 -22 l-124 0 -11 -32 c-11 -30 -10 -30 7
-15 13 12 37 17 78 17 33 0 65 5 71 11 16 16 43 3 43 -21 0 -21 -33 -29 -45
-10 -3 6 -31 10 -61 10 -48 0 -60 -4 -85 -29 -31 -32 -41 -91 -15 -91 17 0 41
28 41 48 0 24 31 38 49 23 9 -8 16 -17 16 -22 0 -15 -31 -38 -44 -33 -7 3 -19
-2 -26 -11 -7 -8 -21 -15 -31 -15 -12 0 -19 -7 -19 -20 0 -16 7 -20 33 -20 49
0 107 62 107 114 0 22 4 35 10 31 6 -3 10 -20 10 -36 0 -22 -13 -43 -46 -79
-39 -41 -53 -50 -81 -50 -35 0 -35 0 -28 -37 4 -21 8 -40 10 -42 7 -7 227 220
229 237 2 9 13 18 24 20 29 4 31 -35 3 -46 -11 -4 -72 -58 -135 -121 -80 -79
-113 -118 -108 -127 6 -11 19 -3 52 31 46 46 82 65 40 20 -17 -18 -19 -25 -9
-25 8 0 20 5 25 10 15 15 46 1 42 -19 -4 -16 -25 -18 -64 -6 -29 9 -78 -33
-68 -58 6 -17 9 -16 35 9 20 19 33 24 46 19 17 -8 17 -8 -2 -13 -26 -5 -55
-31 -55 -48 0 -28 115 -130 180 -162 102 -48 110 -49 110 -13 l0 31 96 0 96 0
-4 -30 c-3 -16 -4 -30 -3 -30 1 0 24 7 51 17 94 31 203 119 250 200 18 32 18
33 -6 58 -25 26 -49 32 -66 15 -5 -5 -22 -11 -38 -12 l-28 -2 44 -37 c41 -36
42 -38 25 -56 -9 -11 -14 -23 -10 -26 3 -4 2 -7 -3 -7 -17 0 -74 52 -74 67 0
8 -4 11 -10 8 -17 -11 -11 11 11 39 11 14 26 23 32 19 6 -4 8 0 4 10 -8 21 20
44 35 29 7 -7 19 -12 27 -12 11 0 10 4 -4 20 -37 41 -7 28 35 -15 48 -49 60
-54 60 -27 0 22 -218 239 -245 244 -25 4 -27 41 -3 46 11 2 21 -5 27 -20 5
-13 59 -72 120 -132 110 -109 110 -109 116 -80 4 16 8 35 11 42 2 8 -8 12 -29
12 -26 0 -43 10 -80 48 -39 40 -47 54 -47 85 0 20 5 37 11 37 7 0 8 -11 4 -31
-6 -27 -2 -36 36 -75 34 -34 50 -44 76 -44 26 0 33 4 33 20 0 14 -7 20 -24 20
-13 0 -29 7 -36 15 -7 8 -16 12 -22 9 -13 -8 -38 15 -38 36 0 23 28 34 46 19
8 -6 14 -20 14 -30 0 -18 27 -39 50 -39 19 0 0 62 -28 93 -22 23 -33 27 -84
27 -34 0 -58 -4 -58 -11 0 -6 -10 -9 -22 -7 -15 2 -23 10 -23 23 0 13 8 21 23
23 12 2 22 -2 22 -8 0 -8 20 -11 60 -9 46 2 64 -2 80 -16 23 -20 24 -17 10 19
-10 26 -10 26 -135 26 -77 0 -125 4 -125 10 0 6 47 10 120 10 l121 0 -16 30
c-18 34 -22 36 -44 16 -9 -8 -28 -18 -43 -21 -24 -6 -28 -4 -28 15 0 19 4 21
28 15 20 -4 33 -1 42 10 11 13 9 19 -10 41 l-24 24 -46 -45 c-32 -31 -54 -45
-73 -45 -15 0 -27 5 -27 10 0 6 13 10 28 10 19 0 40 12 65 38 20 21 37 41 37
44 0 10 -93 65 -143 83 -42 16 -49 16 -65 3 -25 -21 -154 -24 -172 -4 -19 23
-40 20 -116 -19z m80 -4 c3 -5 15 -7 26 -4 13 3 22 -1 26 -12 5 -13 9 -14 15
-3 7 10 9 11 9 0 0 -7 4 -11 9 -7 5 3 33 6 61 6 29 1 46 5 40 9 -25 16 88 2
123 -15 52 -24 59 -36 36 -64 -10 -13 -19 -21 -19 -18 0 3 -12 2 -27 -2 -25
-7 -29 -4 -45 31 -17 38 -26 43 -88 40 -39 -2 -72 -2 -105 2 -34 3 -81 -24
-90 -53 -7 -24 -33 -35 -50 -21 -6 5 -15 6 -19 2 -4 -4 -6 0 -4 8 2 8 -2 14
-9 15 -16 0 -29 15 -14 15 7 0 10 4 7 9 -3 4 15 19 40 31 25 13 47 27 50 32 7
11 21 10 28 -1z m106 -71 c0 -5 -15 -10 -33 -10 -20 0 -41 -8 -51 -19 -15 -17
-15 -20 -1 -34 22 -23 19 -27 -20 -27 -19 0 -35 5 -35 10 0 6 6 10 14 10 9 0
12 7 9 20 -9 34 24 60 74 60 23 0 43 -4 43 -10z m123 -4 c9 -7 17 -25 17 -40
0 -14 5 -26 10 -26 6 0 10 -18 10 -40 0 -22 -4 -40 -9 -40 -18 0 -17 -57 1
-80 18 -22 17 -23 -11 -55 -16 -18 -31 -39 -33 -46 -6 -17 -38 -4 -38 15 0 8
8 17 19 21 10 3 26 15 36 25 27 30 6 44 -55 41 -50 -2 -50 -2 -50 28 0 20 7
35 20 43 38 24 16 108 -28 108 -25 0 -52 -31 -52 -58 0 -14 9 -36 21 -48 31
-33 19 -50 -14 -22 -56 48 -24 148 48 148 41 0 62 -24 68 -77 3 -35 0 -46 -19
-64 -13 -12 -24 -26 -24 -31 0 -14 50 -9 66 6 16 17 19 46 4 46 -15 0 -12 78
3 83 9 3 9 10 -2 30 -12 22 -21 27 -53 27 -21 0 -38 5 -38 10 0 15 82 12 103
-4z m-90 -123 c-3 -7 -14 -13 -25 -13 -10 0 -16 5 -13 10 3 6 1 10 -6 10 -8 0
-5 8 6 20 17 18 19 19 30 3 7 -10 11 -23 8 -30z m-119 -28 c-8 -34 11 -55 52
-55 l34 0 0 -60 c0 -33 -4 -60 -10 -60 -5 0 -10 22 -10 49 l0 49 -37 5 c-24 3
-43 0 -52 -9 -13 -12 -12 -17 9 -39 13 -14 29 -25 37 -25 7 0 13 -9 13 -20 0
-28 -29 -25 -40 4 -5 14 -18 30 -30 36 -25 14 -26 32 0 55 12 11 17 22 11 29
-4 6 -11 23 -15 39 -6 24 -4 27 19 27 22 0 25 -3 19 -25z m166 -95 c0 -5 -9
-10 -20 -10 -16 0 -20 -7 -20 -35 0 -19 -4 -35 -10 -35 -11 0 -14 73 -3 83 10
11 53 8 53 -3z m-225 -60 c3 -5 12 -7 20 -3 27 10 16 -6 -51 -72 -68 -67 -80
-76 -70 -50 3 8 1 15 -4 15 -22 0 -8 27 37 72 49 50 58 55 68 38z m424 -106
c-6 -7 -8 -18 -4 -24 17 -27 -16 -4 -72 52 -62 62 -76 83 -49 72 8 -3 17 0 21
6 5 8 26 -6 61 -41 40 -39 51 -56 43 -65z m-370 54 c11 -10 14 -10 18 0 7 17
43 15 43 -3 0 -8 5 -15 10 -15 6 0 10 7 10 15 0 8 9 15 19 15 10 0 21 -7 25
-15 3 -8 10 -15 16 -15 5 0 10 7 10 15 0 8 9 15 20 15 11 0 20 -5 20 -10 0 -6
8 -5 20 2 18 11 26 7 75 -42 55 -54 64 -76 31 -73 -12 1 -15 -4 -12 -14 4 -9
-1 -17 -14 -20 -11 -3 -20 -12 -20 -19 0 -23 -12 -17 -85 41 -74 59 -81 62
-110 41 -16 -11 -19 -30 -21 -124 -3 -105 -2 -113 19 -127 21 -14 20 -15 -20
-15 l-41 0 -16 63 c-8 34 -17 71 -18 82 -2 11 -8 20 -13 20 -17 0 -36 16 -30
25 3 4 -5 10 -16 13 -15 4 -20 11 -15 23 4 12 2 15 -9 11 -35 -14 -23 19 26
69 29 30 56 54 59 54 3 0 12 -6 19 -12z m136 -99 c10 -15 -3 -59 -17 -59 -9 0
-9 3 0 12 14 14 16 48 3 48 -5 0 -8 -7 -7 -16 0 -9 -5 -19 -11 -21 -16 -6 -17
19 -1 35 15 15 25 15 33 1z m90 -124 c-7 -52 -55 -92 -55 -45 0 26 -43 54 -70
45 -17 -5 -20 -2 -20 24 0 26 4 31 25 31 14 0 30 8 37 19 11 18 13 17 50 -8
36 -24 38 -28 33 -66z m-340 52 c0 -12 -11 -28 -60 -82 -15 -16 -24 -25 -20
-18 3 7 -3 18 -15 25 -21 13 -28 48 -10 48 6 0 15 10 20 23 5 12 9 16 9 8 1
-9 5 -10 14 -3 14 11 49 20 57 14 3 -2 5 -9 5 -15z m583 7 c12 -8 22 -20 22
-26 0 -6 -8 -4 -18 5 -10 10 -26 17 -35 17 -9 0 -17 5 -17 10 0 15 22 12 48
-6z m-513 -41 c4 -12 -2 -25 -20 -40 -14 -13 -21 -23 -14 -23 7 0 5 -8 -6 -20
-22 -24 -65 -27 -65 -4 0 15 78 103 91 104 4 0 10 -8 14 -17z m349 -9 c8 -21
-11 -44 -36 -44 -21 0 -33 22 -24 45 7 20 52 19 60 -1z m52 -83 c-10 -16 -52
-13 -66 4 -10 13 -9 19 6 36 l18 20 24 -25 c14 -13 21 -29 18 -35z m-271 29
c-9 -28 12 -52 38 -44 13 4 17 2 13 -5 -9 -15 -39 -14 -54 1 -13 13 -16 50 -5
61 12 12 14 7 8 -13z m-103 -17 c3 -16 9 -36 13 -45 6 -16 1 -18 -34 -18 -54
0 -63 21 -25 61 34 36 40 36 46 2z m147 13 c9 -10 8 -16 -4 -26 -19 -16 -41 1
-32 24 8 20 21 20 36 2z m154 -31 c24 -33 15 -45 -34 -45 -42 0 -44 4 -29 44
12 33 40 33 63 1z m-82 -17 c-5 -16 -18 -24 -37 -26 l-29 -2 30 25 c37 31 47
32 36 3z"/>
<path d="M833 924 c-25 -27 -28 -40 -12 -50 6 -3 24 6 40 22 22 21 26 31 18
41 -15 17 -20 16 -46 -13z"/>
<path d="M1130 935 c-12 -14 -10 -20 14 -42 24 -22 30 -24 42 -11 12 12 10 18
-14 41 -26 25 -30 26 -42 12z"/>
<path d="M903 795 c-7 -20 2 -29 21 -22 9 4 13 13 10 22 -8 19 -23 19 -31 0z"/>
<path d="M516 1671 c-23 -25 -13 -58 20 -73 21 -10 28 -8 49 13 22 21 23 27
12 49 -16 32 -57 38 -81 11z m62 -24 c4 -20 -25 -34 -40 -19 -15 15 -1 44 19
40 10 -2 19 -11 21 -21z"/>
<path d="M1478 1616 c-37 -46 -16 -60 22 -15 25 31 30 49 12 49 -4 0 -19 -15
-34 -34z"/>
<path d="M1517 1592 c-21 -23 -22 -56 -2 -72 23 -19 39 -1 19 21 -14 15 -15
22 -6 31 10 10 17 10 32 0 25 -16 30 -15 30 3 0 14 -29 35 -48 35 -5 0 -16 -8
-25 -18z"/>
<path d="M407 1584 c-4 -4 -7 -16 -7 -26 0 -10 -6 -18 -14 -18 -13 0 -66 -61
-66 -75 0 -4 7 -4 17 -1 10 4 25 -2 40 -16 16 -15 26 -19 34 -11 7 7 2 17 -20
32 -18 13 -28 27 -24 36 7 19 47 19 63 0 7 -8 16 -15 21 -15 13 0 11 28 -3 32
-6 2 -17 19 -23 37 -6 18 -14 29 -18 25z"/>
<path d="M1597 1536 c-9 -9 -13 -25 -10 -38 4 -22 4 -22 -11 -4 -19 23 -35 13
-20 -12 6 -9 22 -17 35 -17 20 0 24 5 22 28 -2 24 0 27 13 16 23 -19 30 -1 7
22 -18 19 -22 19 -36 5z"/>
<path d="M295 1440 c-5 -8 64 -60 80 -60 17 0 -1 28 -30 48 -39 25 -42 26 -50
12z"/>
<path d="M260 1371 c-14 -28 -14 -29 29 -51 25 -12 42 -16 46 -10 3 6 -2 13
-12 17 -16 6 -15 8 6 13 14 3 27 12 29 19 3 9 -2 11 -16 7 -13 -4 -22 -1 -26
9 -8 21 -43 19 -56 -4z"/>
<path d="M1697 1384 c-4 -4 -7 -18 -7 -31 0 -12 -4 -23 -10 -23 -5 0 -10 7
-10 15 0 8 -4 15 -10 15 -14 0 -13 -23 2 -38 22 -22 48 -14 48 13 0 26 15 34
23 13 2 -7 8 -9 13 -5 4 4 3 16 -2 25 -12 19 -36 27 -47 16z"/>
<path d="M1706 1294 c-22 -21 -20 -47 4 -69 42 -38 98 12 70 64 -13 25 -52 28
-74 5z m54 -19 c15 -18 5 -35 -20 -35 -10 0 -22 5 -25 10 -7 11 12 40 25 40 4
0 13 -7 20 -15z"/>
<path d="M220 1276 c0 -14 59 -66 74 -66 4 0 5 9 1 19 -3 11 1 25 10 34 23 24
19 27 -35 27 -37 0 -50 -4 -50 -14z"/>
<path d="M200 1191 c-18 -35 -11 -48 30 -59 21 -5 42 -7 45 -4 12 12 4 70 -11
76 -29 11 -53 6 -64 -13z m58 -25 c3 -15 0 -17 -20 -11 -30 10 -31 11 -23 25
10 17 39 8 43 -14z"/>
<path d="M1736 1184 c-21 -20 -21 -64 -1 -64 9 0 14 8 12 23 -1 16 3 22 18 22
13 0 19 -6 19 -18 -1 -12 4 -17 15 -15 32 7 1 68 -35 68 -7 0 -20 -7 -28 -16z"/>
<path d="M180 1106 c0 -11 9 -16 29 -16 16 0 36 -3 45 -6 11 -4 16 -1 16 10 0
11 -9 16 -29 16 -16 0 -36 3 -45 6 -11 4 -16 1 -16 -10z"/>
<path d="M1773 1102 c-30 -2 -43 -8 -43 -18 0 -11 9 -13 43 -8 47 8 51 9 46
21 -2 4 -23 7 -46 5z"/>
<path d="M248 1048 c-3 -8 -19 -12 -41 -10 -28 3 -37 0 -37 -12 0 -12 11 -16
50 -16 47 0 50 2 50 25 0 26 -15 34 -22 13z"/>
<path d="M1768 1053 c-33 -4 -38 -8 -38 -29 0 -13 5 -24 10 -24 6 0 10 7 10
15 0 8 5 15 10 15 6 0 10 -7 10 -15 0 -8 5 -15 10 -15 6 0 10 7 10 15 0 8 5
15 11 15 5 0 8 -4 4 -9 -6 -10 13 -26 21 -18 7 7 -7 57 -15 55 -3 -1 -23 -3
-43 -5z"/>
<path d="M192 984 c-48 -33 -11 -98 45 -78 34 11 42 47 17 75 -21 23 -33 24
-62 3z m54 -25 c8 -14 -21 -43 -35 -35 -6 4 -11 16 -11 27 0 21 34 27 46 8z"/>
<path d="M1805 978 c-4 -9 -17 -13 -40 -10 -46 5 -46 -15 -1 -24 19 -3 37 -12
40 -19 6 -16 -28 -30 -61 -26 -15 2 -23 -3 -23 -13 0 -10 9 -16 22 -16 12 0
32 -10 45 -22 l23 -21 0 21 c0 12 -6 22 -12 22 -9 1 -8 5 3 13 18 14 32 94 18
103 -5 3 -11 -1 -14 -8z"/>
<path d="M223 871 c-6 -24 -23 -28 -23 -6 0 8 -4 15 -10 15 -14 0 -12 -23 4
-45 16 -23 46 -14 46 15 0 11 5 20 10 20 6 0 10 -9 10 -20 0 -11 5 -20 11 -20
6 0 9 12 7 28 -4 35 -46 45 -55 13z"/>
<path d="M283 763 c-22 -8 -14 -33 9 -33 21 0 21 0 2 -15 -12 -9 -14 -14 -6
-15 7 0 10 -4 7 -10 -3 -5 1 -10 9 -10 8 0 18 5 21 10 3 6 2 10 -2 10 -5 0
-10 9 -11 20 -5 54 -4 54 -29 43z"/>
<path d="M1673 714 c3 -4 -1 -13 -9 -21 -11 -12 -12 -18 -3 -29 10 -12 9 -13
-6 -8 -15 6 -17 3 -13 -14 4 -13 2 -20 -6 -19 -6 1 -10 -6 -10 -15 1 -10 -2
-18 -8 -18 -5 0 -6 -4 -3 -10 3 -5 11 -10 16 -10 6 0 7 5 4 10 -3 6 -1 10 5
10 6 0 8 5 5 10 -3 6 1 13 9 16 9 3 13 10 10 15 -3 5 2 12 12 16 15 6 15 7 -2
21 -18 13 -18 14 5 7 15 -5 21 -4 17 3 -3 6 -1 14 5 18 8 4 7 9 -2 15 -16 10
-35 12 -26 3z"/>
<path d="M347 613 c-15 -14 -6 -24 15 -17 20 6 21 5 10 -9 -18 -21 5 -60 31
-53 15 4 16 2 6 -10 -7 -9 -8 -14 -1 -14 16 0 23 16 16 34 -4 12 -13 15 -28
10 -18 -6 -19 -5 -8 9 22 26 -18 74 -41 50z"/>
<path d="M1595 560 c3 -5 -4 -12 -15 -15 -17 -5 -19 -9 -9 -21 9 -11 9 -13 -2
-10 -8 3 -23 -1 -33 -9 -16 -12 -17 -17 -6 -30 17 -20 29 -10 22 18 -4 18 -3
20 9 11 19 -16 43 7 26 25 -9 9 -8 11 4 6 9 -3 21 0 28 8 9 12 7 16 -9 20 -11
3 -18 1 -15 -3z"/>
<path d="M432 508 c-18 -18 -14 -32 4 -17 15 12 16 11 10 -8 -6 -18 -4 -20 14
-16 25 7 25 15 2 36 -14 13 -21 14 -30 5z"/>
<path d="M483 444 c-9 -23 13 -40 32 -24 12 10 13 16 4 26 -15 18 -28 18 -36
-2z"/>
<path d="M1470 443 c0 -5 -12 -15 -26 -21 -22 -11 -24 -14 -10 -27 21 -21 28
-19 20 7 -6 20 -5 21 10 9 11 -9 16 -10 16 -2 0 7 5 9 10 6 16 -10 12 11 -5
25 -8 7 -15 8 -15 3z"/>
<path d="M561 386 c-16 -19 47 -60 66 -44 10 8 12 7 8 -5 -4 -8 -2 -18 3 -21
5 -3 12 2 14 12 6 20 -18 47 -27 32 -8 -13 -25 -13 -25 1 0 5 5 7 10 4 6 -3
10 -1 10 6 0 6 -8 9 -19 6 -14 -3 -18 -1 -14 9 7 18 -11 18 -26 0z"/>
<path d="M1351 356 c-8 -10 -8 -16 2 -24 17 -15 39 0 31 21 -8 21 -18 22 -33
3z"/>
<path d="M667 333 c-4 -3 -7 -13 -7 -22 0 -14 2 -14 10 -1 8 13 10 12 10 -4 0
-14 3 -17 10 -10 6 6 8 18 4 27 -6 18 -16 21 -27 10z"/>
<path d="M1278 324 c-16 -8 -28 -20 -28 -26 0 -9 -3 -9 -11 -1 -14 14 -39 6
-39 -12 0 -20 17 -27 37 -16 10 5 26 12 37 15 11 4 16 12 12 21 -3 8 -1 15 4
15 6 0 10 -4 10 -10 0 -5 4 -10 8 -10 4 0 8 9 8 20 0 24 -2 24 -38 4z"/>
<path d="M708 304 c2 -13 8 -24 13 -24 5 0 6 7 3 15 -4 8 -1 15 5 15 6 0 11
-9 11 -20 0 -24 15 -26 24 -4 8 20 9 18 -30 31 -29 10 -31 10 -26 -13z"/>
<path d="M791 276 c-9 -11 -6 -15 14 -20 14 -4 30 -4 35 -1 6 4 10 2 10 -2 0
-5 14 -10 30 -11 21 -2 30 2 30 12 0 21 -21 31 -31 15 -7 -11 -9 -11 -9 -1 0
7 -4 11 -9 7 -5 -3 -13 0 -17 7 -5 8 -10 6 -15 -8 -7 -17 -8 -17 -8 -1 -1 21
-14 22 -30 3z"/>
<path d="M1133 273 c-6 -14 4 -33 18 -33 5 0 14 10 19 23 7 17 9 18 9 5 1 -10
6 -18 11 -18 12 0 13 11 2 26 -10 14 -53 13 -59 -3z"/>
<path d="M1080 262 c0 -15 6 -20 20 -19 13 1 20 8 19 22 0 11 -3 14 -6 7 -4
-10 -8 -10 -19 -1 -11 9 -14 7 -14 -9z"/>
<path d="M874 195 c-9 -23 3 -33 42 -33 30 0 35 3 32 21 -2 11 -10 23 -18 25
-13 4 -13 3 -2 -10 9 -11 10 -18 2 -23 -5 -3 -10 -1 -10 6 0 9 -3 9 -14 0 -10
-8 -16 -9 -21 -1 -6 9 1 14 18 11 4 0 7 4 7 9 0 16 -30 12 -36 -5z"/>
<path d="M966 194 c-9 -25 -7 -34 8 -34 19 0 28 14 20 34 -8 20 -20 20 -28 0z"/>
<path d="M1048 198 c-7 -17 1 -38 14 -38 6 0 8 7 5 14 -4 10 -1 13 9 9 7 -3
14 -9 14 -14 0 -17 29 -9 40 10 8 16 6 21 -11 26 -13 4 -25 2 -29 -5 -5 -9 -9
-9 -14 -1 -9 15 -23 14 -28 -1z"/>
</g>
</svg>
